<svg width="24" height="24" viewBox="0 0 24 24" fill="none" xmlns="http://www.w3.org/2000/svg">
<g id="Property 1=edit" clip-path="url(#clip0_1_2798)">
<path id="Vector" d="M20.6626 6.64706L17.3762 3.33797C17.159 3.12151 16.8651 3 16.5588 3C16.2524 3 15.9585 3.12151 15.7413 3.33797L4.09038 14.9927L3.02662 19.5918C2.98992 19.7599 2.99118 19.9341 3.0303 20.1017C3.06942 20.2692 3.14542 20.4259 3.25273 20.5603C3.36005 20.6947 3.49598 20.8034 3.65059 20.8784C3.80519 20.9534 3.97458 20.9929 4.14637 20.9939C4.22641 21.002 4.30707 21.002 4.38711 20.9939L9.02846 19.9283L20.6626 8.28478C20.8787 8.06722 21 7.77281 21 7.46592C21 7.15902 20.8787 6.86461 20.6626 6.64706ZM8.46859 18.9187L4.11837 19.8329L5.10935 15.5592L13.8266 6.86019L17.1858 10.2254L8.46859 18.9187ZM17.936 9.41211L14.5768 6.04694L16.5252 4.10635L19.8284 7.47153L17.936 9.41211Z" fill="#676767"/>
</g>
<defs>
<clipPath id="clip0_1_2798">
<rect width="24" height="24" fill="white"/>
</clipPath>
</defs>
</svg>
