<svg width="77" height="96" viewBox="0 0 77 96" fill="none" xmlns="http://www.w3.org/2000/svg">
<mask id="mask0_5_387" style="mask-type:alpha" maskUnits="userSpaceOnUse" x="0" y="0" width="77" height="96">
<path d="M77 96H0V0H77V96Z" fill="black"/>
</mask>
<g mask="url(#mask0_5_387)">
<path d="M5 96H72C74.7614 96 77 93.7614 77 91V16L60 0H5C2.23858 0 0 2.23857 0 5V91C0 93.7614 2.23858 96 5 96Z" fill="#ACADB5"/>
<path d="M33.6241 40L29.6191 34.57L33.3391 29.5H32.1391L28.9891 33.79L25.8241 29.5H24.5491L28.2841 34.6L24.2941 40H25.5691L28.9441 35.38L32.3341 40H33.6241ZM35.9766 40H42.9666V39.04H37.0866V29.5H35.9766V40ZM48.3374 40.09C51.0224 40.09 52.2524 38.77 52.2524 37.225C52.2524 33.4 45.7874 35.14 45.7874 32.26C45.7874 31.21 46.6424 30.355 48.5624 30.355C49.4924 30.355 50.5424 30.64 51.4424 31.225L51.8174 30.34C50.9774 29.755 49.7474 29.41 48.5624 29.41C45.8924 29.41 44.6924 30.745 44.6924 32.29C44.6924 36.175 51.1574 34.405 51.1574 37.285C51.1574 38.32 50.3024 39.145 48.3374 39.145C46.9574 39.145 45.6224 38.605 44.8724 37.87L44.4374 38.725C45.2174 39.535 46.7624 40.09 48.3374 40.09Z" fill="white"/>
<path d="M65 16H77L60 0L60 11C60 13.7614 62.2386 16 65 16Z" fill="#FFD600"/>
<path d="M56 69.5L21 69.5" stroke="white"/>
<path d="M32.5 77L32.5 53" stroke="white"/>
<path d="M44.5 77L44.5 53" stroke="white"/>
<path d="M56 61.5L21 61.5" stroke="white"/>
<rect x="20.5" y="53.5" width="36" height="23" rx="1.5" stroke="white"/>
</g>
</svg>
