<svg width="24" height="24" viewBox="0 0 24 24" fill="none" xmlns="http://www.w3.org/2000/svg">
<g id="Property 1=import nft">
<path id="Vector" d="M7.69565 5.63043C7.97179 5.63043 8.19565 5.40658 8.19565 5.13043C8.19565 4.85429 7.97179 4.63043 7.69565 4.63043V5.63043ZM16.3043 4.63043C16.0282 4.63043 15.8043 4.85429 15.8043 5.13043C15.8043 5.40658 16.0282 5.63043 16.3043 5.63043V4.63043ZM12.5 2C12.5 1.72386 12.2761 1.5 12 1.5C11.7239 1.5 11.5 1.72386 11.5 2L12.5 2ZM11.6464 14.8753C11.8417 15.0706 12.1583 15.0706 12.3536 14.8753L15.5355 11.6933C15.7308 11.498 15.7308 11.1815 15.5355 10.9862C15.3403 10.7909 15.0237 10.7909 14.8284 10.9862L12 13.8146L9.17157 10.9862C8.97631 10.7909 8.65973 10.7909 8.46447 10.9862C8.2692 11.1815 8.2692 11.498 8.46447 11.6933L11.6464 14.8753ZM2.5 5.91267V18.4365H3.5V5.91267H2.5ZM3.78261 19.7174H20.2174V18.7174H3.78261V19.7174ZM21.5 18.4348V5.91304H20.5V18.4348H21.5ZM7.69565 4.63043H3.78261V5.63043H7.69565V4.63043ZM20.2174 4.63043H16.3043V5.63043H20.2174V4.63043ZM21.5 5.91304C21.5 5.20468 20.9258 4.63043 20.2174 4.63043V5.63043C20.3735 5.63043 20.5 5.75696 20.5 5.91304H21.5ZM20.2174 19.7174C20.9258 19.7174 21.5 19.1431 21.5 18.4348H20.5C20.5 18.5909 20.3735 18.7174 20.2174 18.7174V19.7174ZM2.5 18.4365C2.5 19.1463 3.07567 19.7174 3.78261 19.7174V18.7174C3.6251 18.7174 3.5 18.5911 3.5 18.4365H2.5ZM3.5 5.91267C3.5 5.7569 3.62622 5.63043 3.78261 5.63043V4.63043C3.07456 4.63043 2.5 5.20399 2.5 5.91267H3.5ZM11.5 2L11.5 14.5217H12.5L12.5 2L11.5 2Z" fill="#676767"/>
</g>
</svg>
