<svg width="24" height="22" viewBox="0 0 24 22" fill="none" xmlns="http://www.w3.org/2000/svg">
<g id="Frame 1985">
<path id="Vector 399" d="M4.74063 17H7.89701L17.3736 16.9624H19.2689C24.323 16.9625 25.5866 10.6145 21.796 8.06044C23.6916 -1.52112 10.4242 -2.79607 9.15981 5.50494C7.89672 4.22855 4.73979 4.86738 4.73979 7.42069C-1.5795 7.42069 -1.58064 17 4.74063 17Z" fill="#FFD600"/>
<path id="Vector 398" d="M12.5 21C12.5 21.2761 12.7239 21.5 13 21.5C13.2761 21.5 13.5 21.2761 13.5 21L12.5 21ZM13.3536 8.64645C13.1583 8.45118 12.8417 8.45118 12.6464 8.64645L9.46447 11.8284C9.2692 12.0237 9.2692 12.3403 9.46447 12.5355C9.65973 12.7308 9.97631 12.7308 10.1716 12.5355L13 9.70711L15.8284 12.5355C16.0237 12.7308 16.3403 12.7308 16.5355 12.5355C16.7308 12.3403 16.7308 12.0237 16.5355 11.8284L13.3536 8.64645ZM13.5 21L13.5 9L12.5 9L12.5 21L13.5 21Z" fill="#232323"/>
</g>
</svg>
